# xmcd
#
# Track frame offsets:
#	150
#	22276
#	27718
#	59774
#	69376
#	79423
#	102787
#	110686
#	137672
#	142136
#	155271
#	163706
#	186828
#	200970
#	225988
#	244972
#	253601
#	273054
#
# Disc length: 3773 seconds
#
# Revision: 1
# Processed by: cddbd v1.5.1PL0 Copyright (c) Steve Scherf et al.
# Submitted via: CDex 1.50Beta5
#
DISCID=110ebb12
DTITLE=長井秀和 - お話しさせていただきます。
DYEAR=2003
DGENRE=Comedy
TTITLE0=お話しさせていただきます
TTITLE1=美容院
TTITLE2=女の話
TTITLE3=メタル
TTITLE4=アメリカの話
TTITLE5=フィクション
TTITLE6=リーマンブルース
TTITLE7=間違いない
TTITLE8=パシリの本懐とは
TTITLE9=中年女の話
TTITLE10=ダイエットをしたい方に
TTITLE11=デブテクノ
TTITLE12=男の本懐とは
TTITLE13=ダメ人生
TTITLE14=いろいろお話しさせていただきます
TTITLE15=スロット
TTITLE16=スケベなんだ間違いない
TTITLE17=バイバイ
EXTD=
EXTT0=
EXTT1=
EXTT2=
EXTT3=
EXTT4=
EXTT5=
EXTT6=
EXTT7=
EXTT8=
EXTT9=
EXTT10=
EXTT11=
EXTT12=
EXTT13=
EXTT14=
EXTT15=
EXTT16=
EXTT17=
PLAYORDER=
